inDegrees=no
num_controls=7
num_derivatives=13
num_iterations=185
num_multipliers=7
num_parameters=0
num_slacks=7
num_states=26
objective=0.478951
objective_accelerations=0.006497
objective_balance=0.003691
objective_effort=0.026059
objective_height=0.337026
objective_ligament=0.105678
solver_duration=2541.191383
status=Solve_Succeeded
success=true
DataType=double
version=3
OpenSimVersion=4.5
endheader
time	/jointset/ground_pelvis/pelvis_tilt/value	/jointset/ground_pelvis/pelvis_tx/value	/jointset/ground_pelvis/pelvis_ty/value	/jointset/hip_l/hip_flexion_l/value	/jointset/hip_l/hip_adduction_l/value	/jointset/hip_l/hip_rotation_l/value	/jointset/back/lumbar_extension/value	/jointset/patellofemoral_l/patellar_flexion_l/value	/jointset/knee_l/knee_flexion_l/value	/jointset/knee_l/knee_adduction_l/value	/jointset/knee_l/knee_rotation_l/value	/jointset/ankle_l/ankle_angle_l/value	/jointset/subtalar_l/subtalar_angle_l/value	/jointset/ground_pelvis/pelvis_tilt/speed	/jointset/ground_pelvis/pelvis_tx/speed	/jointset/ground_pelvis/pelvis_ty/speed	/jointset/hip_l/hip_flexion_l/speed	/jointset/hip_l/hip_adduction_l/speed	/jointset/hip_l/hip_rotation_l/speed	/jointset/back/lumbar_extension/speed	/jointset/patellofemoral_l/patellar_flexion_l/speed	/jointset/knee_l/knee_flexion_l/speed	/jointset/knee_l/knee_adduction_l/speed	/jointset/knee_l/knee_rotation_l/speed	/jointset/ankle_l/ankle_angle_l/speed	/jointset/subtalar_l/subtalar_angle_l/speed	/forceset/tau_hip_flexion_l	/forceset/tau_hip_adduction_l	/forceset/tau_hip_rotation_l	/forceset/tau_knee_flexion_l	/forceset/tau_ankle_angle_l	/forceset/tau_subtalar_angle_l	/forceset/tau_lumbar_extension	lambda_cid13_p0	lambda_cid13_p1	lambda_cid13_p2	lambda_cid13_p3	lambda_cid13_p4	lambda_cid13_p5	lambda_cid14_p0	/jointset/ground_pelvis/pelvis_tilt/accel	/jointset/ground_pelvis/pelvis_tx/accel	/jointset/ground_pelvis/pelvis_ty/accel	/jointset/hip_l/hip_flexion_l/accel	/jointset/hip_l/hip_adduction_l/accel	/jointset/hip_l/hip_rotation_l/accel	/jointset/back/lumbar_extension/accel	/jointset/patellofemoral_l/patellar_flexion_l/accel	/jointset/knee_l/knee_flexion_l/accel	/jointset/knee_l/knee_adduction_l/accel	/jointset/knee_l/knee_rotation_l/accel	/jointset/ankle_l/ankle_angle_l/accel	/jointset/subtalar_l/subtalar_angle_l/accel	gamma_cid13_p0	gamma_cid13_p1	gamma_cid13_p2	gamma_cid13_p3	gamma_cid13_p4	gamma_cid13_p5	gamma_cid14_p0
0.5	-0.09089438395375897	-0.06272696415148561	0.8606351709065138	0.7325124390684005	-0.2847915800052706	-0.2182995325386062	-0.921958750116316	0.5711730986595924	0.5711730986596005	-0.06054487515827321	-0.1745046181139155	-0.01744116127150803	0.004762345051730319	-0.3852986913589502	-0.09815402129907343	-0.1436412430566942	0.8740931563444565	-0.08976536084638785	0.1959228020611035	-0.5271654864957893	0.4988215099172063	0.4988215099171714	-0.08249905414787272	-5.561170389811266e-05	-0.0001560387147584533	-0.09465171690365512	-0.3493672138269412	0.04846220876016809	-0.007154929835656659	-0.1093277746114975	0.1000664946549773	0.06223034263396057	0.4137084066594633	-14.86472463431232	-25.34431998921454	4.637574639329974	-10.33178802331243	-756.4386888760961	-80.08736011368843	-21.78122739521783	-0.8724511196861986	0.7154556066810401	0.2916013456186572	-1.212191921101459	0.2124011390600327	-0.5847264380281834	4.388631842419084	-2.059907867001766	-2.05990786700196	-0.1504479216595789	-0.002724848968959649	-0.004941281103927253	0.2262347380520498	-1.560135829340318e-08	5.38986882268753e-08	5.822462372524425e-08	-8.100729959579992e-09	3.925630191121172e-08	-7.306836842562398e-09	-7.682242767972819e-09
0.51	-0.09478966733248977	-0.06367318493999753	0.859213421084113	0.7411923301177886	-0.2856783996854469	-0.2163692325214611	-0.9270127334790839	0.576059209134644	0.5760592091346464	-0.06137662856442676	-0.1745049614958339	-0.01744278760794262	0.003827415066997432	-0.3936389547758473	-0.09113352551231198	-0.1406976409431602	0.8618316101086991	-0.08757652972735243	0.1901189765139425	-0.4837865683983685	0.478452777946393	0.4784527779463505	-0.08376712918150518	-1.382658881284141e-05	-0.0001677090116387464	-0.09231123136648157	-0.3537452609450604	0.04956646798055874	-0.007066268696100051	-0.107267967826732	0.09704547758163981	0.06288712061044931	0.4165054228270098	-15.84500225847566	-25.46819494812753	4.669061082995134	-9.655045372959638	-756.7815624175568	-79.78890765946848	-21.66803048611509	-0.79696505116962	0.6888364581979246	0.2974095965161055	-1.24115715305647	0.2254149313149121	-0.5809448310212156	4.289214442131047	-2.017525536165669	-2.017525536166624	-0.1022986337749716	0.007523252958304073	0.0009476827961515614	0.2413985107483364	-1.299897617055718e-08	4.966170191166994e-08	5.081139538366692e-08	-8.950783370669599e-09	3.924289938133466e-08	-7.538340017772664e-09	-6.588105569265431e-09
0.52	-0.0987647835650844	-0.06455050279193705	0.8578214412733068	0.7497480014691693	-0.2865426728878385	-0.2144975176033779	-0.9316375891311316	0.5807431983551786	0.5807431983551754	-0.0622185249888214	-0.1745049084143653	-0.01744448512999168	0.002916578547475829	-0.4012652621318756	-0.08437343398459891	-0.1376872407378037	0.8492492167431952	-0.08525606528873014	0.1842057822483335	-0.441339944351849	0.4583972590137977	0.4583972590137522	-0.08452765779753445	2.368097471303006e-05	-0.0001702758374673326	-0.08983302386137421	-0.3581233080631843	0.05067072720094682	-0.006977607556510613	-0.1052081610419657	0.09402446050830283	0.0635438985869349	0.4193024389945529	-16.83529728272993	-25.5905232275287	4.700537804623723	-8.972949357646852	-757.2811669376356	-79.51285824913472	-21.55674767294213	-0.7296599075126022	0.6633747548715468	0.3049609639831778	-1.276361347050848	0.2387278029773776	-0.6066001817177769	4.202173032238755	-1.997265259358105	-1.997265259357414	-0.04893863813899069	-0.003580359280865042	-0.003120586893337199	0.253779131638869	-1.098111225995008e-08	4.592850442026988e-08	4.519920201797356e-08	-9.45106874383041e-09	3.892379926965505e-08	-7.443621010953017e-09	-5.777490114995713e-09
0.53	-0.1028125033009327	-0.06536154762220403	0.856459857044456	0.7581762835745665	-0.2873831546099125	-0.2126854030137311	-0.9358430532854609	0.5852283599424104	0.5852283599423982	-0.06306562425113156	-0.1745045110909685	-0.0174461606294196	0.002031138693835127	-0.4081459042892125	-0.07788111904149947	-0.1346221821507949	0.8363519239928064	-0.08282761380281711	0.178212753405205	-0.399955257526801	0.4387043832664581	0.4387043832664341	-0.08482757125704055	5.729381252419212e-05	-0.000162099570164646	-0.08724130557648088	-0.3618213074371049	0.05163706717026701	-0.006876934578723474	-0.1032076359642927	0.09101999389046761	0.06410544248611855	0.421280990955521	-17.78519574866989	-25.6786546674096	4.726665555665426	-8.253865858288838	-757.1339939615776	-79.18464621414796	-21.44769668064814	-0.6473538963348944	0.635319875834616	0.3083994896122944	-1.304709041351233	0.2467900896456031	-0.5963112820961139	4.07626085553706	-1.944898936912185	-1.944898936909441	-0.010812335975	0.007064199635200058	0.003195308182505608	0.2639025782186261	-9.351074040531823e-09	4.258898137506094e-08	4.038432872920694e-08	-9.727279925584655e-09	3.854347617568462e-08	-7.052895410396191e-09	-5.136936841910897e-09
